<svg xmlns="http://www.w3.org/2000/svg" width="1200" height="630" viewBox="0 0 1200 630">
  <defs>
    <style>@import url('https://fonts.googleapis.com/css2?family=Newsreader:ital,opsz,wght@0,6..72,200..600;1,6..72,200..600&family=JetBrains+Mono:wght@400;500&display=swap');</style>
    <radialGradient id="dawn-alicerise" cx="50%" cy="92%" r="60%">
      <stop offset="0%" stop-color="#F4A261" stop-opacity="0.38"/>
      <stop offset="45%" stop-color="#C44536" stop-opacity="0.18"/>
      <stop offset="100%" stop-color="#0A0E27" stop-opacity="0"/>
    </radialGradient>
    <linearGradient id="rise-alicerise" x1="0" y1="0" x2="1" y2="0.4">
      <stop offset="0%" stop-color="#C9BBD6"/>
      <stop offset="100%" stop-color="#7E5C95"/>
    </linearGradient>
    <radialGradient id="vignette-alicerise" cx="50%" cy="38%" r="75%">
      <stop offset="60%" stop-color="#0A0E27" stop-opacity="0"/>
      <stop offset="100%" stop-color="#05060F" stop-opacity="0.6"/>
    </radialGradient>
  </defs>

  <rect width="1200" height="630" fill="#0A0E27"/>
  <rect width="1200" height="630" fill="url(#dawn-alicerise)"/>
  <rect width="1200" height="630" fill="url(#vignette-alicerise)"/>

  <!-- header -->
  <circle cx="138" cy="58" r="7" fill="#F4A261"/>
  <text x="162" y="64" font-family="JetBrains Mono" font-size="16" letter-spacing="4" fill="rgba(255, 239, 213, 0.65)">RNS · RISECHAIN NAME SERVICE</text>
  <g>
    <rect x="1000" y="40" width="120" height="38" rx="19" fill="none" stroke="#F4A261" stroke-opacity="0.6"/>
    <circle cx="1024" cy="59" r="5" fill="#F4A261"/>
    <text x="1040" y="64" font-family="JetBrains Mono" font-size="15" letter-spacing="2" fill="#F4A261">ACTIVE</text>
  </g>

  <!-- avatar -->
  <svg x="250" y="206" width="190" height="190" viewBox="0 0 256 256">
    <defs>
    <linearGradient id="bg-alicerise" gradientTransform="rotate(45 0.5 0.5)">
    <stop offset="0%" stop-color="hsl(354 71% 58%)"/>
    <stop offset="50%" stop-color="hsl(354 71% 58%)"/>
    <stop offset="50%" stop-color="hsl(85 71% 44%)"/>
    <stop offset="100%" stop-color="hsl(85 71% 44%)"/>
  </linearGradient>
    <clipPath id="clip-alicerise"><rect width="256" height="256" rx="56.32"/></clipPath>
  </defs>
  <g clip-path="url(#clip-alicerise)">
    <rect width="256" height="256" fill="url(#bg-alicerise)"/>
    <g transform="rotate(128 128 117.76)"><path d="M 76.8 135.68 Q 128 64 179.2 135.68"
              fill="none" stroke="#FFEFD5" stroke-width="4.608" stroke-linecap="round" opacity="0.88"/>
        <circle cx="128" cy="96" r="11.5" fill="#FFEFD5" opacity="0.92"/></g>
    <line x1="0" y1="158.72" x2="256" y2="158.72" stroke="#FFEFD5" stroke-width="1" opacity="0.22"/>
  </g>
  </svg>

  <!-- name -->
  <text x="480" y="360" font-family="Newsreader" font-weight="300" font-size="150" fill="#FFEFD5">alice<tspan fill="#F4A261">.</tspan><tspan font-style="italic" fill="url(#rise-alicerise)">rise</tspan></text>

  <text x="600" y="455" text-anchor="middle"
      font-family="Newsreader" font-style="italic" font-weight="300" font-size="34" fill="rgba(255, 239, 213, 0.65)">“Independent researcher, building the agentic web one quiet morning at a time.”</text>

  <!-- horizon ruler -->
  <line x1="80" y1="500" x2="1120" y2="500" stroke="#FFEFD5" stroke-width="1" opacity="0.3"/><line x1="80" y1="491" x2="80" y2="509" stroke="#F4A261" stroke-width="1.5" opacity="0.55"/><line x1="106" y1="495" x2="106" y2="505" stroke="#FFEFD5" stroke-width="1" opacity="0.28"/><line x1="132" y1="495" x2="132" y2="505" stroke="#FFEFD5" stroke-width="1" opacity="0.28"/><line x1="158" y1="495" x2="158" y2="505" stroke="#FFEFD5" stroke-width="1" opacity="0.28"/><line x1="184" y1="495" x2="184" y2="505" stroke="#FFEFD5" stroke-width="1" opacity="0.28"/><line x1="210" y1="491" x2="210" y2="509" stroke="#F4A261" stroke-width="1.5" opacity="0.55"/><line x1="236" y1="495" x2="236" y2="505" stroke="#FFEFD5" stroke-width="1" opacity="0.28"/><line x1="262" y1="495" x2="262" y2="505" stroke="#FFEFD5" stroke-width="1" opacity="0.28"/><line x1="288" y1="495" x2="288" y2="505" stroke="#FFEFD5" stroke-width="1" opacity="0.28"/><line x1="314" y1="495" x2="314" y2="505" stroke="#FFEFD5" stroke-width="1" opacity="0.28"/><line x1="340" y1="491" x2="340" y2="509" stroke="#F4A261" stroke-width="1.5" opacity="0.55"/><line x1="366" y1="495" x2="366" y2="505" stroke="#FFEFD5" stroke-width="1" opacity="0.28"/><line x1="392" y1="495" x2="392" y2="505" stroke="#FFEFD5" stroke-width="1" opacity="0.28"/><line x1="418" y1="495" x2="418" y2="505" stroke="#FFEFD5" stroke-width="1" opacity="0.28"/><line x1="444" y1="495" x2="444" y2="505" stroke="#FFEFD5" stroke-width="1" opacity="0.28"/><line x1="470" y1="491" x2="470" y2="509" stroke="#F4A261" stroke-width="1.5" opacity="0.55"/><line x1="496" y1="495" x2="496" y2="505" stroke="#FFEFD5" stroke-width="1" opacity="0.28"/><line x1="522" y1="495" x2="522" y2="505" stroke="#FFEFD5" stroke-width="1" opacity="0.28"/><line x1="548" y1="495" x2="548" y2="505" stroke="#FFEFD5" stroke-width="1" opacity="0.28"/><line x1="574" y1="495" x2="574" y2="505" stroke="#FFEFD5" stroke-width="1" opacity="0.28"/><line x1="600" y1="491" x2="600" y2="509" stroke="#F4A261" stroke-width="1.5" opacity="0.55"/><line x1="626" y1="495" x2="626" y2="505" stroke="#FFEFD5" stroke-width="1" opacity="0.28"/><line x1="652" y1="495" x2="652" y2="505" stroke="#FFEFD5" stroke-width="1" opacity="0.28"/><line x1="678" y1="495" x2="678" y2="505" stroke="#FFEFD5" stroke-width="1" opacity="0.28"/><line x1="704" y1="495" x2="704" y2="505" stroke="#FFEFD5" stroke-width="1" opacity="0.28"/><line x1="730" y1="491" x2="730" y2="509" stroke="#F4A261" stroke-width="1.5" opacity="0.55"/><line x1="756" y1="495" x2="756" y2="505" stroke="#FFEFD5" stroke-width="1" opacity="0.28"/><line x1="782" y1="495" x2="782" y2="505" stroke="#FFEFD5" stroke-width="1" opacity="0.28"/><line x1="808" y1="495" x2="808" y2="505" stroke="#FFEFD5" stroke-width="1" opacity="0.28"/><line x1="834" y1="495" x2="834" y2="505" stroke="#FFEFD5" stroke-width="1" opacity="0.28"/><line x1="860" y1="491" x2="860" y2="509" stroke="#F4A261" stroke-width="1.5" opacity="0.55"/><line x1="886" y1="495" x2="886" y2="505" stroke="#FFEFD5" stroke-width="1" opacity="0.28"/><line x1="912" y1="495" x2="912" y2="505" stroke="#FFEFD5" stroke-width="1" opacity="0.28"/><line x1="938" y1="495" x2="938" y2="505" stroke="#FFEFD5" stroke-width="1" opacity="0.28"/><line x1="964" y1="495" x2="964" y2="505" stroke="#FFEFD5" stroke-width="1" opacity="0.28"/><line x1="990" y1="491" x2="990" y2="509" stroke="#F4A261" stroke-width="1.5" opacity="0.55"/><line x1="1016" y1="495" x2="1016" y2="505" stroke="#FFEFD5" stroke-width="1" opacity="0.28"/><line x1="1042" y1="495" x2="1042" y2="505" stroke="#FFEFD5" stroke-width="1" opacity="0.28"/><line x1="1068" y1="495" x2="1068" y2="505" stroke="#FFEFD5" stroke-width="1" opacity="0.28"/><line x1="1094" y1="495" x2="1094" y2="505" stroke="#FFEFD5" stroke-width="1" opacity="0.28"/><line x1="1120" y1="491" x2="1120" y2="509" stroke="#F4A261" stroke-width="1.5" opacity="0.55"/>

  <!-- footer -->
  <text x="80" y="588" font-family="JetBrains Mono" font-size="16" letter-spacing="1" fill="rgba(255, 239, 213, 0.65)">inscribed at block 12,345,678 · expires 2027-05-27</text>
  <text x="1120" y="588" text-anchor="end" font-family="JetBrains Mono" font-size="16" letter-spacing="1" fill="#F4A261">rns.rise</text>
</svg>